<svg width="768" height="768" viewBox="0 0 768 768" fill="none" xmlns="http://www.w3.org/2000/svg">
<mask id="path-1-inside-1_1_15" fill="white">
<path fill-rule="evenodd" clip-rule="evenodd" d="M199.191 0.237723C138.761 5.14572 86.6355 31.2427 50.0545 74.9057C30.5965 98.1317 16.1535 125.633 8.20153 154.6C-0.900467 187.754 -2.45948 220.974 3.68953 250.736C7.39253 268.657 15.3395 287.909 24.6485 301.517C37.3815 320.127 56.2205 336.065 78.5965 347.159C101.722 358.623 128.554 364.93 174.191 369.63C225.21 374.883 231.509 376.562 245.216 388.557C248.288 391.245 252.319 394.165 254.173 395.044C265.627 400.48 279.133 398.236 287.919 389.439C294.134 383.216 296.061 378.617 296.511 368.929C296.84 361.847 296.557 360.006 294.42 355.34C288.383 342.152 264.623 326.799 239.191 319.651C225.137 315.701 215.285 314.137 188.691 311.633C116.625 304.848 85.7045 291.291 69.5915 259.417C54.5885 229.737 57.5965 179.683 76.6385 142.14C85.3665 124.933 90.9885 117.245 105.176 103.12C115.396 92.9437 120.488 88.7357 128.616 83.7517C145.953 73.1177 165.161 65.8077 186.191 61.8377C198.699 59.4767 233.468 59.4897 246.191 61.8597C285.914 69.2597 314.674 88.2647 327.643 115.682L330.689 122.12L308.94 122.392C287.204 122.663 281.703 122.271 233.691 117.017C214.127 114.877 186.433 115.554 175.598 118.437C144.796 126.634 122.674 148.804 114.547 179.62C111.434 191.424 111.426 212.483 114.53 223.949C119.883 243.722 130.609 258.619 147.482 269.713C162.882 279.837 176.016 283.026 209.055 284.659C246.541 286.512 272.194 290.972 292.533 299.174C327.365 313.219 342.821 336.399 342.837 374.62C342.852 410.539 327.687 440.65 298.506 462.638C255.84 494.788 185.417 503.773 127.191 484.496C88.1215 471.561 64.9235 444.087 60.7055 405.761C59.3455 393.396 57.7585 388.629 53.1145 382.963C43.3975 371.104 27.3385 368.643 13.6495 376.913C2.45853 383.675 -1.40047 393.945 0.61053 411.62C2.99953 432.619 7.01753 446.34 16.2785 465.12C24.2205 481.226 29.9515 489.056 44.1105 503.144C70.1775 529.078 103.646 544.281 149.904 551.2C174.396 554.864 207.994 554.829 232.718 551.116C282.642 543.617 325.636 522.364 356.916 489.721C390.289 454.894 406.638 409.104 402.655 361.62C399.418 323.028 384.995 292.446 359.949 271.072C349.363 262.038 342.441 257.603 327.191 250.084C297.581 235.484 264.367 228.428 212.129 225.641C200.825 225.038 190.949 223.995 187.865 223.079C177.593 220.029 172.538 212.611 172.458 200.472C172.381 188.935 179.068 179.515 189.483 176.488C197.111 174.271 221.676 174.997 248.191 178.224L271.191 181.022L465.691 181.571L660.191 182.12L667.068 184.873C693.119 195.302 709.584 221.773 706.595 248.422C705.495 258.232 702.887 263.462 690.537 280.62C670.672 308.219 661.874 320.379 635.152 357.168C620.39 377.491 593.854 414.145 576.184 438.62C558.514 463.095 539.166 489.87 533.189 498.12C527.212 506.37 514.392 524.145 504.701 537.62C495.01 551.095 480.398 571.345 472.23 582.62C453.93 607.883 452.514 610.537 452.514 619.597C452.514 630.954 458.602 640.934 468.505 645.812L473.191 648.12L579.191 648.62C698.381 649.182 688.214 648.469 697.41 656.912C703.967 662.932 706.671 669.27 706.671 678.62C706.671 691.059 700.538 700.602 689.191 705.821L684.191 708.12L509.691 708.38C321.818 708.66 328.433 708.834 324.458 703.51C322.699 701.154 322.658 700.639 323.977 697.526C324.771 695.653 328.553 689.845 332.383 684.62C336.213 679.395 348.573 662.295 359.85 646.62C371.127 630.945 385.065 611.595 390.824 603.62C411.589 574.869 420.282 562.797 434.026 543.62C441.713 532.895 452.579 517.82 458.172 510.12C488.958 467.736 507.144 442.562 522.827 420.62C532.458 407.145 543.433 391.845 547.216 386.62C555.597 375.047 581.98 338.453 605.084 306.355C633.854 266.386 632.675 268.478 632.685 257.408C632.696 246.158 626.435 235.726 616.482 230.411L612.191 228.12L488.191 227.901C373.28 227.699 364.411 227.802 367.191 229.306C383.512 238.14 405.352 260.634 416.277 279.863L420.108 286.605L482.805 286.863L545.502 287.12L535.768 300.62C530.414 308.045 511.927 333.695 494.685 357.62C477.443 381.545 461.677 403.37 459.649 406.12C457.622 408.87 437.148 437.22 414.152 469.12C391.155 501.02 362.519 540.732 350.516 557.37C298.443 629.545 284.64 648.712 277.885 658.226C266.302 674.537 262.683 684.796 262.703 701.264C262.717 712.878 264.26 719.411 269.403 729.62C273.961 738.669 285.123 750.43 294.478 756.04C302.162 760.648 314.651 764.999 324.691 766.566C330.27 767.437 378.033 767.658 511.191 767.429L690.191 767.12L699.702 764.488C733.511 755.133 756.154 732.929 764.833 700.62C767.989 688.872 767.984 667.934 764.822 656.12C756.466 624.903 732.798 601.204 701.191 592.403C693.329 590.214 691.886 590.167 617.433 589.648L541.675 589.12L552.511 574.12C658.271 427.724 748.787 301.832 752.535 295.923C757.097 288.731 762.039 276.663 764.767 266.053C766.626 258.821 767.065 254.454 767.068 243.12C767.073 228.147 766.073 221.091 762.037 207.62C755.704 186.48 742.099 165.934 724.691 151.218C709.116 138.052 694.715 130.636 673.691 124.954C667.688 123.331 656.716 123.156 530.274 122.659L393.357 122.12L392.467 119.12C384.085 90.8447 374.04 72.6677 356.623 54.2637C342.967 39.8347 327.204 28.4937 308.645 19.7447C289.626 10.7797 270.733 5.14773 249.495 2.11373C239.105 0.62873 208.448 -0.514277 199.191 0.237723Z"/>
</mask>
<path fill-rule="evenodd" clip-rule="evenodd" d="M199.191 0.237723C138.761 5.14572 86.6355 31.2427 50.0545 74.9057C30.5965 98.1317 16.1535 125.633 8.20153 154.6C-0.900467 187.754 -2.45948 220.974 3.68953 250.736C7.39253 268.657 15.3395 287.909 24.6485 301.517C37.3815 320.127 56.2205 336.065 78.5965 347.159C101.722 358.623 128.554 364.93 174.191 369.63C225.21 374.883 231.509 376.562 245.216 388.557C248.288 391.245 252.319 394.165 254.173 395.044C265.627 400.48 279.133 398.236 287.919 389.439C294.134 383.216 296.061 378.617 296.511 368.929C296.84 361.847 296.557 360.006 294.42 355.34C288.383 342.152 264.623 326.799 239.191 319.651C225.137 315.701 215.285 314.137 188.691 311.633C116.625 304.848 85.7045 291.291 69.5915 259.417C54.5885 229.737 57.5965 179.683 76.6385 142.14C85.3665 124.933 90.9885 117.245 105.176 103.12C115.396 92.9437 120.488 88.7357 128.616 83.7517C145.953 73.1177 165.161 65.8077 186.191 61.8377C198.699 59.4767 233.468 59.4897 246.191 61.8597C285.914 69.2597 314.674 88.2647 327.643 115.682L330.689 122.12L308.94 122.392C287.204 122.663 281.703 122.271 233.691 117.017C214.127 114.877 186.433 115.554 175.598 118.437C144.796 126.634 122.674 148.804 114.547 179.62C111.434 191.424 111.426 212.483 114.53 223.949C119.883 243.722 130.609 258.619 147.482 269.713C162.882 279.837 176.016 283.026 209.055 284.659C246.541 286.512 272.194 290.972 292.533 299.174C327.365 313.219 342.821 336.399 342.837 374.62C342.852 410.539 327.687 440.65 298.506 462.638C255.84 494.788 185.417 503.773 127.191 484.496C88.1215 471.561 64.9235 444.087 60.7055 405.761C59.3455 393.396 57.7585 388.629 53.1145 382.963C43.3975 371.104 27.3385 368.643 13.6495 376.913C2.45853 383.675 -1.40047 393.945 0.61053 411.62C2.99953 432.619 7.01753 446.34 16.2785 465.12C24.2205 481.226 29.9515 489.056 44.1105 503.144C70.1775 529.078 103.646 544.281 149.904 551.2C174.396 554.864 207.994 554.829 232.718 551.116C282.642 543.617 325.636 522.364 356.916 489.721C390.289 454.894 406.638 409.104 402.655 361.62C399.418 323.028 384.995 292.446 359.949 271.072C349.363 262.038 342.441 257.603 327.191 250.084C297.581 235.484 264.367 228.428 212.129 225.641C200.825 225.038 190.949 223.995 187.865 223.079C177.593 220.029 172.538 212.611 172.458 200.472C172.381 188.935 179.068 179.515 189.483 176.488C197.111 174.271 221.676 174.997 248.191 178.224L271.191 181.022L465.691 181.571L660.191 182.12L667.068 184.873C693.119 195.302 709.584 221.773 706.595 248.422C705.495 258.232 702.887 263.462 690.537 280.62C670.672 308.219 661.874 320.379 635.152 357.168C620.39 377.491 593.854 414.145 576.184 438.62C558.514 463.095 539.166 489.87 533.189 498.12C527.212 506.37 514.392 524.145 504.701 537.62C495.01 551.095 480.398 571.345 472.23 582.62C453.93 607.883 452.514 610.537 452.514 619.597C452.514 630.954 458.602 640.934 468.505 645.812L473.191 648.12L579.191 648.62C698.381 649.182 688.214 648.469 697.41 656.912C703.967 662.932 706.671 669.27 706.671 678.62C706.671 691.059 700.538 700.602 689.191 705.821L684.191 708.12L509.691 708.38C321.818 708.66 328.433 708.834 324.458 703.51C322.699 701.154 322.658 700.639 323.977 697.526C324.771 695.653 328.553 689.845 332.383 684.62C336.213 679.395 348.573 662.295 359.85 646.62C371.127 630.945 385.065 611.595 390.824 603.62C411.589 574.869 420.282 562.797 434.026 543.62C441.713 532.895 452.579 517.82 458.172 510.12C488.958 467.736 507.144 442.562 522.827 420.62C532.458 407.145 543.433 391.845 547.216 386.62C555.597 375.047 581.98 338.453 605.084 306.355C633.854 266.386 632.675 268.478 632.685 257.408C632.696 246.158 626.435 235.726 616.482 230.411L612.191 228.12L488.191 227.901C373.28 227.699 364.411 227.802 367.191 229.306C383.512 238.14 405.352 260.634 416.277 279.863L420.108 286.605L482.805 286.863L545.502 287.12L535.768 300.62C530.414 308.045 511.927 333.695 494.685 357.62C477.443 381.545 461.677 403.37 459.649 406.12C457.622 408.87 437.148 437.22 414.152 469.12C391.155 501.02 362.519 540.732 350.516 557.37C298.443 629.545 284.64 648.712 277.885 658.226C266.302 674.537 262.683 684.796 262.703 701.264C262.717 712.878 264.26 719.411 269.403 729.62C273.961 738.669 285.123 750.43 294.478 756.04C302.162 760.648 314.651 764.999 324.691 766.566C330.27 767.437 378.033 767.658 511.191 767.429L690.191 767.12L699.702 764.488C733.511 755.133 756.154 732.929 764.833 700.62C767.989 688.872 767.984 667.934 764.822 656.12C756.466 624.903 732.798 601.204 701.191 592.403C693.329 590.214 691.886 590.167 617.433 589.648L541.675 589.12L552.511 574.12C658.271 427.724 748.787 301.832 752.535 295.923C757.097 288.731 762.039 276.663 764.767 266.053C766.626 258.821 767.065 254.454 767.068 243.12C767.073 228.147 766.073 221.091 762.037 207.62C755.704 186.48 742.099 165.934 724.691 151.218C709.116 138.052 694.715 130.636 673.691 124.954C667.688 123.331 656.716 123.156 530.274 122.659L393.357 122.12L392.467 119.12C384.085 90.8447 374.04 72.6677 356.623 54.2637C342.967 39.8347 327.204 28.4937 308.645 19.7447C289.626 10.7797 270.733 5.14773 249.495 2.11373C239.105 0.62873 208.448 -0.514277 199.191 0.237723Z" fill="url(#paint0_linear_1_15)" stroke="black" stroke-width="2" mask="url(#path-1-inside-1_1_15)"/>
<defs>
<linearGradient id="paint0_linear_1_15" x1="103.691" y1="72.6197" x2="720.691" y2="738.12" gradientUnits="userSpaceOnUse">
<stop stop-color="#D863FF"/>
<stop offset="1" stop-color="#743788"/>
</linearGradient>
</defs>
</svg>
